<svg xmlns="http://www.w3.org/2000/svg" viewBox="0 0 1200 760" role="img" aria-label="Rowshan Moving Company marketing panel with truck, boxes, sofa and moving equipment">
  <defs><linearGradient id="bg" x1="0" y1="0" x2="1" y2="1"><stop offset="0" stop-color="#f3faf5"/><stop offset="1" stop-color="#cfe8d7"/></linearGradient><filter id="s"><feDropShadow dx="0" dy="16" stdDeviation="20" flood-color="#041a3c" flood-opacity=".18"/></filter></defs>
  <rect width="1200" height="760" rx="40" fill="url(#bg)"/>
  <circle cx="1040" cy="110" r="180" fill="#bf8520" opacity=".12"/>
  <circle cx="160" cy="640" r="210" fill="#bf8520" opacity=".10"/>
  <g filter="url(#s)">
    <rect x="155" y="295" width="630" height="210" rx="28" fill="#bf8520"/>
    <rect x="630" y="220" width="235" height="285" rx="30" fill="#ffffff"/>
    <rect x="680" y="265" width="125" height="95" rx="14" fill="#dff0e5"/>
    <rect x="185" y="250" width="390" height="130" rx="26" fill="#19a052"/>
    <circle cx="290" cy="520" r="72" fill="#041a3c"/><circle cx="710" cy="520" r="72" fill="#041a3c"/>
    <circle cx="290" cy="520" r="29" fill="#e9f5ed" opacity=".25"/><circle cx="710" cy="520" r="29" fill="#e9f5ed" opacity=".25"/>
    <text x="230" y="335" font-family="Inter,Arial" font-size="72" font-weight="900" fill="#fff">RB</text>
    <text x="225" y="392" font-family="Inter,Arial" font-size="44" font-weight="900" fill="#fff">MOVING</text>
  </g>
  <g filter="url(#s)">
    <rect x="830" y="410" width="190" height="150" rx="12" fill="#d3954b"/><path d="M830 462h190M925 410v150" stroke="#98632d" stroke-width="7"/>
    <rect x="930" y="310" width="180" height="125" rx="12" fill="#e0a65d"/><path d="M930 352h180M1020 310v125" stroke="#a56f33" stroke-width="7"/>
    <rect x="805" y="235" width="180" height="110" rx="18" fill="#ffffff"/><path d="M830 278h130" stroke="#bf8520" stroke-width="14" stroke-linecap="round"/><path d="M845 310h100" stroke="#041a3c" stroke-width="9" stroke-linecap="round"/>
  </g>
  <g filter="url(#s)">
    <rect x="120" y="105" width="350" height="82" rx="41" fill="#fff"/><circle cx="165" cy="146" r="22" fill="#bf8520"/><text x="205" y="156" font-family="Inter,Arial" font-size="32" font-weight="900" fill="#041a3c">Same-Day Availability</text>
    <rect x="500" y="105" width="310" height="82" rx="41" fill="#fff"/><circle cx="545" cy="146" r="22" fill="#bf8520"/><text x="585" y="156" font-family="Inter,Arial" font-size="32" font-weight="900" fill="#041a3c">Local Moving Team</text>
    <rect x="840" y="105" width="250" height="82" rx="41" fill="#fff"/><circle cx="885" cy="146" r="22" fill="#bf8520"/><text x="925" y="156" font-family="Inter,Arial" font-size="32" font-weight="900" fill="#041a3c">Calgary Area</text>
  </g>
</svg>
